<svg width="312" height="312" viewBox="0 0 312 312" fill="none" xmlns="http://www.w3.org/2000/svg">
<rect width="312" height="312" rx="10" fill="white"/>
<mask id="path-2-inside-1_2_43" fill="white">
<path d="M231 156C231 197.421 197.421 231 156 231C114.579 231 81 197.421 81 156C81 114.579 114.579 81 156 81C197.421 81 231 114.579 231 156Z"/>
</mask>
<g filter="url(#filter0_i_2_43)">
<path d="M231 156C231 197.421 197.421 231 156 231C114.579 231 81 197.421 81 156C81 114.579 114.579 81 156 81C197.421 81 231 114.579 231 156Z" fill="url(#paint0_linear_2_43)"/>
</g>
<path d="M227 156C227 195.212 195.212 227 156 227V235C199.63 235 235 199.63 235 156H227ZM156 227C116.788 227 85 195.212 85 156H77C77 199.63 112.37 235 156 235V227ZM85 156C85 116.788 116.788 85 156 85V77C112.37 77 77 112.37 77 156H85ZM156 85C195.212 85 227 116.788 227 156H235C235 112.37 199.63 77 156 77V85Z" fill="#FF0000" fill-opacity="0.3" mask="url(#path-2-inside-1_2_43)"/>
<mask id="path-4-inside-2_2_43" fill="white">
<path fill-rule="evenodd" clip-rule="evenodd" d="M86.3742 152C83.5097 152 81.215 149.591 81.5648 146.747C85.7943 112.37 113.286 85.1915 147.81 81.4422C150.632 81.1357 153 83.4211 153 86.2596V147C153 149.762 150.761 152 148 152H86.3742ZM86.2591 159C83.4206 159 81.1352 161.368 81.4417 164.19C85.2296 199.069 112.931 226.77 147.81 230.558C150.632 230.865 153 228.579 153 225.741V164C153 161.239 150.761 159 148 159H86.2591ZM165 159C162.238 159 160 161.239 160 164V225.626C160 228.49 162.409 230.785 165.252 230.435C199.63 226.206 226.808 198.714 230.558 164.19C230.864 161.368 228.579 159 225.74 159H165ZM225.625 152C228.49 152 230.784 149.591 230.435 146.747C226.249 112.724 199.276 85.7513 165.252 81.5653C162.409 81.2155 160 83.5102 160 86.3747V147C160 149.762 162.238 152 165 152H225.625Z"/>
</mask>
<g filter="url(#filter1_i_2_43)">
<path fill-rule="evenodd" clip-rule="evenodd" d="M86.3742 152C83.5097 152 81.215 149.591 81.5648 146.747C85.7943 112.37 113.286 85.1915 147.81 81.4422C150.632 81.1357 153 83.4211 153 86.2596V147C153 149.762 150.761 152 148 152H86.3742ZM86.2591 159C83.4206 159 81.1352 161.368 81.4417 164.19C85.2296 199.069 112.931 226.77 147.81 230.558C150.632 230.865 153 228.579 153 225.741V164C153 161.239 150.761 159 148 159H86.2591ZM165 159C162.238 159 160 161.239 160 164V225.626C160 228.49 162.409 230.785 165.252 230.435C199.63 226.206 226.808 198.714 230.558 164.19C230.864 161.368 228.579 159 225.74 159H165ZM225.625 152C228.49 152 230.784 149.591 230.435 146.747C226.249 112.724 199.276 85.7513 165.252 81.5653C162.409 81.2155 160 83.5102 160 86.3747V147C160 149.762 162.238 152 165 152H225.625Z" fill="url(#paint1_linear_2_43)"/>
</g>
<path d="M230.435 146.747L234.405 146.259L230.435 146.747ZM230.558 164.19L234.534 164.622L230.558 164.19ZM165.252 230.435L164.764 226.465L165.252 230.435ZM147.81 230.558L148.242 226.582L147.81 230.558ZM81.5648 146.747L77.5947 146.259L81.5648 146.747ZM147.378 77.4656C111.005 81.4157 82.0507 110.041 77.5947 146.259L85.5349 147.236C89.538 114.699 115.567 88.9674 148.242 85.4188L147.378 77.4656ZM157 147V86.2596H149V147H157ZM86.3742 156H148V148H86.3742V156ZM77.4651 164.622C81.4558 201.368 110.632 230.544 147.378 234.535L148.242 226.582C115.23 222.996 89.0034 196.77 85.4183 163.758L77.4651 164.622ZM157 225.741V164H149V225.741H157ZM148 155H86.2591V163H148V155ZM156 164V225.626H164V164H156ZM165.741 234.405C201.959 229.949 230.584 200.994 234.534 164.622L226.581 163.758C223.033 196.433 197.301 222.462 164.764 226.465L165.741 234.405ZM225.74 155H165V163H225.74V155ZM234.405 146.259C229.994 110.413 201.587 82.0054 165.741 77.5952L164.764 85.5353C196.966 89.4972 222.503 115.034 226.465 147.236L234.405 146.259ZM156 86.3747V147H164V86.3747H156ZM165 156H225.625V148H165V156ZM156 147C156 151.971 160.029 156 165 156V148C164.447 148 164 147.552 164 147H156ZM165.741 77.5952C160.328 76.9292 156 81.2978 156 86.3747H164C164 86.0792 164.121 85.845 164.279 85.6979C164.426 85.5618 164.583 85.513 164.764 85.5353L165.741 77.5952ZM226.465 147.236C226.487 147.417 226.438 147.574 226.302 147.72C226.155 147.879 225.921 148 225.625 148V156C230.702 156 235.071 151.672 234.405 146.259L226.465 147.236ZM234.534 164.622C235.117 159.252 230.773 155 225.74 155V163C226.033 163 226.266 163.119 226.414 163.276C226.55 163.422 226.601 163.578 226.581 163.758L234.534 164.622ZM156 225.626C156 230.703 160.328 235.071 165.741 234.405L164.764 226.465C164.583 226.487 164.426 226.439 164.279 226.302C164.121 226.155 164 225.921 164 225.626H156ZM164 164C164 163.448 164.447 163 165 163V155C160.029 155 156 159.03 156 164H164ZM157 164C157 159.03 152.97 155 148 155V163C148.552 163 149 163.448 149 164H157ZM147.378 234.535C152.747 235.118 157 230.773 157 225.741H149C149 226.033 148.881 226.266 148.724 226.414C148.578 226.551 148.422 226.601 148.242 226.582L147.378 234.535ZM85.4183 163.758C85.3987 163.578 85.4491 163.422 85.5858 163.276C85.7334 163.119 85.9666 163 86.2591 163V155C81.2267 155 76.882 159.253 77.4651 164.622L85.4183 163.758ZM149 147C149 147.552 148.552 148 148 148V156C152.97 156 157 151.971 157 147H149ZM77.5947 146.259C76.9288 151.672 81.2972 156 86.3742 156V148C86.0788 148 85.8446 147.879 85.6974 147.72C85.5613 147.574 85.5126 147.417 85.5349 147.236L77.5947 146.259ZM148.242 85.4188C148.422 85.3992 148.578 85.4496 148.724 85.5863C148.881 85.7339 149 85.967 149 86.2596H157C157 81.2272 152.747 76.8825 147.378 77.4656L148.242 85.4188Z" fill="white" fill-opacity="0.3" mask="url(#path-4-inside-2_2_43)"/>
<path d="M114.533 110.263H117.624V111H113.43V110.336L116.345 106.464H113.474V105.717H117.478V106.356L114.533 110.263ZM121.906 110.478C121.555 110.891 121.039 111.098 120.358 111.098C119.795 111.098 119.366 110.935 119.069 110.609C118.776 110.281 118.628 109.796 118.625 109.154V105.717H119.528V109.13C119.528 109.931 119.854 110.331 120.505 110.331C121.195 110.331 121.654 110.074 121.882 109.56V105.717H122.785V111H121.926L121.906 110.478ZM125.144 111H124.24V103.5H125.144V111ZM126.354 108.31C126.354 107.792 126.455 107.326 126.657 106.913C126.862 106.5 127.146 106.181 127.507 105.956C127.871 105.731 128.286 105.619 128.752 105.619C129.471 105.619 130.052 105.868 130.495 106.366C130.941 106.864 131.164 107.527 131.164 108.354V108.417C131.164 108.931 131.065 109.394 130.866 109.804C130.671 110.211 130.389 110.528 130.021 110.756C129.657 110.984 129.237 111.098 128.762 111.098C128.046 111.098 127.465 110.849 127.019 110.351C126.576 109.853 126.354 109.193 126.354 108.373V108.31ZM127.263 108.417C127.263 109.003 127.398 109.473 127.668 109.828C127.941 110.183 128.306 110.36 128.762 110.36C129.221 110.36 129.585 110.181 129.855 109.823C130.126 109.462 130.261 108.957 130.261 108.31C130.261 107.73 130.122 107.261 129.846 106.903C129.572 106.542 129.208 106.361 128.752 106.361C128.306 106.361 127.946 106.539 127.673 106.894C127.399 107.248 127.263 107.756 127.263 108.417Z" fill="white" fill-opacity="0.05"/>
<path d="M188.413 135.08L186.134 134.911L185.664 141.231L184.734 141.162L185.204 134.842L182.93 134.673L182.987 133.903L188.47 134.311L188.413 135.08ZM190.768 139.363L190.835 140.308L191.097 139.48L192.867 134.637L193.656 134.696L194.657 139.745L194.788 140.616L195.01 139.673L196.47 134.905L197.41 134.975L195.165 141.937L194.312 141.874L193.236 136.599L193.164 136.05L193.012 136.582L191.113 141.636L190.261 141.573L189.074 134.355L190.009 134.425L190.768 139.363ZM203.229 141.601C202.963 141.927 202.608 142.16 202.164 142.3C201.723 142.437 201.216 142.485 200.645 142.442C200.067 142.399 199.564 142.226 199.136 141.924C198.709 141.618 198.39 141.206 198.18 140.687C197.974 140.169 197.892 139.581 197.935 138.921L197.981 138.303C198.06 137.235 198.37 136.425 198.91 135.875C199.454 135.324 200.177 135.083 201.079 135.15C201.819 135.205 202.401 135.439 202.824 135.852C203.247 136.262 203.483 136.818 203.532 137.521L202.598 137.451C202.492 136.5 201.968 135.989 201.027 135.919C200.4 135.873 199.908 136.058 199.551 136.476C199.197 136.89 198.988 137.514 198.922 138.348L198.879 138.928C198.82 139.723 198.955 140.37 199.283 140.867C199.612 141.362 200.087 141.632 200.707 141.678C201.057 141.704 201.367 141.688 201.636 141.63C201.905 141.571 202.132 141.456 202.318 141.284L202.436 139.691L200.795 139.569L200.851 138.81L203.422 139.001L203.229 141.601Z" fill="white" fill-opacity="0.05"/>
<path d="M167.1 170.978L166.954 173.758L166.018 173.709L166.391 166.609L169.009 166.747C169.786 166.788 170.384 167.018 170.802 167.437C171.223 167.857 171.416 168.394 171.382 169.047C171.346 169.736 171.102 170.257 170.65 170.608C170.201 170.956 169.575 171.109 168.772 171.066L167.1 170.978ZM167.14 170.213L168.822 170.301C169.323 170.328 169.713 170.231 169.992 170.011C170.271 169.788 170.422 169.453 170.445 169.008C170.468 168.585 170.352 168.24 170.099 167.973C169.846 167.705 169.487 167.554 169.022 167.52L167.287 167.429L167.14 170.213ZM174.961 169.7C174.826 169.67 174.678 169.651 174.519 169.642C173.928 169.611 173.513 169.842 173.275 170.335L173.078 174.08L172.176 174.032L172.453 168.756L173.331 168.803L173.314 169.413C173.634 168.957 174.066 168.743 174.609 168.772C174.784 168.781 174.917 168.811 175.005 168.861L174.961 169.7ZM175.365 171.506C175.392 170.989 175.517 170.529 175.741 170.127C175.967 169.725 176.267 169.421 176.639 169.216C177.015 169.011 177.435 168.921 177.9 168.945C178.619 168.983 179.186 169.262 179.602 169.783C180.021 170.303 180.209 170.977 180.166 171.802L180.162 171.866C180.135 172.379 180.012 172.836 179.792 173.235C179.576 173.631 179.278 173.933 178.898 174.141C178.522 174.35 178.097 174.441 177.622 174.416C176.907 174.379 176.34 174.1 175.921 173.579C175.505 173.058 175.318 172.388 175.362 171.569L175.365 171.506ZM176.266 171.661C176.235 172.246 176.346 172.723 176.597 173.091C176.851 173.46 177.206 173.656 177.661 173.68C178.119 173.704 178.493 173.545 178.782 173.201C179.07 172.855 179.232 172.358 179.266 171.711C179.296 171.132 179.183 170.657 178.925 170.285C178.671 169.91 178.316 169.71 177.861 169.686C177.416 169.663 177.047 169.821 176.756 170.161C176.464 170.501 176.301 171.001 176.266 171.661ZM182.367 169.278L182.057 175.163C182.004 176.177 181.517 176.66 180.597 176.612C180.399 176.601 180.217 176.562 180.051 176.495L180.089 175.773C180.191 175.805 180.327 175.825 180.496 175.834C180.698 175.845 180.854 175.797 180.963 175.692C181.076 175.591 181.14 175.405 181.154 175.135L181.464 169.23L182.367 169.278ZM181.445 167.826C181.453 167.683 181.503 167.563 181.596 167.467C181.693 167.368 181.827 167.323 181.999 167.332C182.175 167.341 182.306 167.398 182.391 167.504C182.477 167.61 182.516 167.735 182.508 167.882C182.501 168.028 182.449 168.148 182.353 168.24C182.256 168.333 182.121 168.375 181.945 168.366C181.77 168.356 181.64 168.301 181.558 168.198C181.475 168.096 181.438 167.972 181.445 167.826ZM185.731 174.843C185.016 174.805 184.447 174.541 184.023 174.049C183.599 173.554 183.408 172.913 183.449 172.126L183.458 171.961C183.485 171.437 183.609 170.976 183.829 170.577C184.052 170.175 184.348 169.867 184.718 169.655C185.091 169.44 185.487 169.344 185.907 169.366C186.593 169.402 187.114 169.656 187.471 170.128C187.827 170.6 187.983 171.256 187.939 172.098L187.919 172.474L184.345 172.286C184.331 172.807 184.46 173.236 184.732 173.573C185.008 173.907 185.37 174.085 185.819 174.109C186.137 174.126 186.411 174.075 186.639 173.957C186.866 173.838 187.069 173.676 187.246 173.47L187.774 173.928C187.297 174.584 186.616 174.889 185.731 174.843ZM185.868 170.107C185.504 170.088 185.191 170.205 184.93 170.459C184.669 170.709 184.497 171.072 184.413 171.546L187.056 171.685L187.06 171.617C187.058 171.157 186.953 170.796 186.745 170.535C186.537 170.269 186.245 170.127 185.868 170.107ZM190.992 174.381C191.314 174.398 191.6 174.315 191.851 174.133C192.102 173.95 192.248 173.714 192.29 173.422L193.143 173.467C193.111 173.769 192.992 174.051 192.785 174.314C192.579 174.577 192.311 174.781 191.981 174.927C191.654 175.073 191.311 175.136 190.954 175.117C190.235 175.079 189.676 174.81 189.275 174.31C188.878 173.807 188.701 173.139 188.745 172.307L188.753 172.156C188.78 171.642 188.898 171.19 189.107 170.801C189.317 170.411 189.603 170.114 189.966 169.912C190.332 169.709 190.755 169.621 191.236 169.646C191.828 169.677 192.31 169.88 192.681 170.255C193.056 170.63 193.241 171.101 193.237 171.668L192.384 171.623C192.376 171.28 192.261 170.994 192.038 170.764C191.819 170.531 191.539 170.405 191.197 170.387C190.739 170.363 190.374 170.51 190.103 170.828C189.836 171.144 189.686 171.613 189.653 172.237L189.644 172.408C189.612 173.016 189.712 173.491 189.945 173.832C190.179 174.174 190.527 174.357 190.992 174.381ZM195.638 168.694L195.571 169.972L196.556 170.023L196.519 170.721L195.534 170.669L195.362 173.941C195.351 174.152 195.387 174.314 195.469 174.426C195.551 174.534 195.698 174.594 195.909 174.605C196.013 174.611 196.157 174.599 196.341 174.569L196.303 175.301C196.062 175.353 195.83 175.374 195.605 175.362C195.202 175.341 194.905 175.203 194.713 174.948C194.521 174.694 194.437 174.342 194.46 173.893L194.632 170.622L193.672 170.571L193.708 169.874L194.669 169.924L194.736 168.647L195.638 168.694ZM166.47 182.962L166.324 185.741L165.388 185.692L165.761 178.593L168.379 178.73C169.156 178.771 169.754 179.001 170.172 179.421C170.593 179.841 170.786 180.377 170.752 181.031C170.716 181.72 170.472 182.24 170.02 182.591C169.571 182.939 168.945 183.092 168.142 183.05L166.47 182.962ZM166.51 182.196L168.192 182.285C168.693 182.311 169.083 182.214 169.362 181.994C169.641 181.771 169.792 181.437 169.815 180.991C169.838 180.569 169.722 180.224 169.469 179.956C169.216 179.688 168.857 179.538 168.392 179.503L166.657 179.412L166.51 182.196ZM171.38 183.313C171.407 182.796 171.533 182.337 171.756 181.934C171.982 181.532 172.282 181.229 172.655 181.023C173.03 180.818 173.451 180.728 173.916 180.752C174.634 180.79 175.201 181.069 175.617 181.59C176.036 182.11 176.224 182.784 176.181 183.609L176.178 183.673C176.151 184.186 176.027 184.643 175.807 185.042C175.591 185.438 175.293 185.74 174.914 185.948C174.538 186.157 174.112 186.249 173.638 186.224C172.923 186.186 172.355 185.907 171.936 185.386C171.52 184.865 171.334 184.196 171.377 183.376L171.38 183.313ZM172.282 183.468C172.251 184.053 172.361 184.53 172.612 184.898C172.867 185.267 173.221 185.463 173.676 185.487C174.135 185.511 174.508 185.352 174.797 185.008C175.086 184.662 175.247 184.165 175.281 183.518C175.311 182.939 175.198 182.464 174.94 182.092C174.686 181.717 174.332 181.517 173.877 181.493C173.431 181.47 173.063 181.628 172.771 181.968C172.479 182.308 172.316 182.808 172.282 183.468ZM181.91 185.314L183.136 181.335L184.038 181.382L182.225 186.577L181.493 186.539L180.421 182.473L178.963 186.406L178.231 186.367L176.978 181.011L177.875 181.058L178.706 185.062L180.142 181.177L180.869 181.215L181.91 185.314ZM186.867 186.919C186.151 186.881 185.582 186.617 185.158 186.125C184.734 185.63 184.543 184.989 184.584 184.203L184.593 184.037C184.62 183.513 184.744 183.052 184.964 182.653C185.187 182.251 185.484 181.944 185.853 181.732C186.226 181.517 186.623 181.42 187.042 181.442C187.728 181.478 188.249 181.732 188.606 182.204C188.962 182.676 189.118 183.333 189.074 184.175L189.054 184.55L185.48 184.362C185.466 184.883 185.595 185.312 185.867 185.649C186.143 185.983 186.505 186.162 186.954 186.185C187.273 186.202 187.546 186.151 187.774 186.033C188.002 185.914 188.204 185.752 188.381 185.546L188.91 186.004C188.432 186.661 187.751 186.965 186.867 186.919ZM187.003 182.183C186.639 182.164 186.326 182.281 186.065 182.535C185.804 182.785 185.632 183.148 185.549 183.623L188.191 183.762L188.195 183.693C188.193 183.234 188.088 182.873 187.88 182.611C187.673 182.346 187.38 182.203 187.003 182.183ZM192.763 182.652C192.627 182.622 192.48 182.603 192.321 182.595C191.729 182.564 191.314 182.795 191.077 183.287L190.88 187.032L189.978 186.985L190.255 181.709L191.133 181.755L191.115 182.365C191.436 181.909 191.868 181.696 192.411 181.724C192.586 181.734 192.718 181.763 192.807 181.814L192.763 182.652ZM197.954 184.817C197.912 185.62 197.694 186.258 197.301 186.729C196.908 187.201 196.398 187.42 195.77 187.387C195.13 187.353 194.637 187.124 194.291 186.698L194.157 189.238L193.255 189.191L193.639 181.887L194.463 181.93L194.476 182.517C194.868 182.082 195.39 181.881 196.043 181.915C196.677 181.949 197.165 182.214 197.507 182.711C197.853 183.208 198.003 183.883 197.958 184.735L197.954 184.817ZM197.057 184.668C197.089 184.073 196.987 183.596 196.751 183.238C196.516 182.881 196.177 182.69 195.735 182.667C195.189 182.638 194.766 182.859 194.468 183.329L194.335 185.85C194.58 186.345 194.98 186.607 195.536 186.636C195.968 186.659 196.32 186.506 196.592 186.178C196.867 185.847 197.022 185.344 197.057 184.668ZM198.872 184.758C198.899 184.241 199.024 183.782 199.247 183.379C199.474 182.977 199.773 182.674 200.146 182.468C200.522 182.263 200.942 182.173 201.407 182.197C202.125 182.235 202.693 182.514 203.108 183.035C203.528 183.556 203.716 184.229 203.672 185.054L203.669 185.118C203.642 185.631 203.518 186.088 203.299 186.487C203.082 186.883 202.784 187.185 202.405 187.394C202.029 187.602 201.604 187.694 201.129 187.669C200.414 187.631 199.847 187.352 199.428 186.831C199.012 186.311 198.825 185.641 198.868 184.822L198.872 184.758ZM199.773 184.913C199.742 185.498 199.852 185.975 200.103 186.344C200.358 186.712 200.713 186.909 201.168 186.932C201.626 186.957 202 186.797 202.288 186.453C202.577 186.107 202.738 185.61 202.772 184.963C202.803 184.385 202.689 183.909 202.432 183.537C202.178 183.162 201.823 182.962 201.368 182.938C200.923 182.915 200.554 183.073 200.262 183.413C199.971 183.753 199.808 184.253 199.773 184.913ZM205.645 187.808L204.743 187.761L205.02 182.485L205.922 182.532L205.645 187.808ZM205.02 181.082C205.028 180.935 205.078 180.814 205.171 180.718C205.268 180.622 205.404 180.579 205.579 180.588C205.755 180.597 205.885 180.655 205.971 180.76C206.057 180.866 206.096 180.992 206.088 181.138C206.08 181.284 206.029 181.404 205.932 181.496C205.836 181.589 205.7 181.631 205.525 181.622C205.349 181.612 205.219 181.557 205.133 181.454C205.05 181.352 205.013 181.228 205.02 181.082ZM208.223 182.653L208.218 183.318C208.648 182.832 209.188 182.606 209.838 182.64C210.953 182.699 211.482 183.358 211.426 184.616L211.242 188.103L210.34 188.055L210.524 184.564C210.541 184.183 210.468 183.898 210.305 183.706C210.145 183.516 209.885 183.411 209.524 183.392C209.232 183.376 208.971 183.441 208.742 183.585C208.512 183.73 208.329 183.925 208.192 184.172L207.995 187.932L207.093 187.884L207.37 182.609L208.223 182.653ZM214.171 181.685L214.104 182.962L215.089 183.014L215.052 183.712L214.067 183.66L213.895 186.932C213.884 187.143 213.92 187.305 214.002 187.416C214.084 187.525 214.231 187.585 214.442 187.596C214.546 187.601 214.69 187.589 214.874 187.56L214.836 188.291C214.595 188.344 214.363 188.364 214.138 188.353C213.735 188.331 213.438 188.194 213.246 187.939C213.054 187.684 212.97 187.333 212.993 186.884L213.165 183.612L212.205 183.562L212.241 182.865L213.202 182.915L213.269 181.638L214.171 181.685Z" fill="white" fill-opacity="0.05"/>
<path d="M173.301 105.422C173.401 106.111 173.372 106.73 173.214 107.279C173.056 107.825 172.784 108.264 172.398 108.596C172.011 108.928 171.535 109.135 170.968 109.217C170.414 109.296 169.903 109.232 169.435 109.023C168.967 108.811 168.578 108.471 168.267 108.003C167.959 107.531 167.753 106.964 167.651 106.301L167.578 105.793C167.48 105.117 167.512 104.502 167.672 103.95C167.833 103.397 168.107 102.953 168.496 102.617C168.888 102.278 169.361 102.068 169.915 101.988C170.479 101.907 170.995 101.972 171.463 102.184C171.934 102.393 172.322 102.739 172.629 103.225C172.936 103.707 173.138 104.291 173.237 104.977L173.301 105.422ZM172.313 105.101C172.192 104.266 171.933 103.651 171.533 103.254C171.134 102.855 170.633 102.699 170.03 102.786C169.444 102.87 169.014 103.161 168.74 103.657C168.469 104.15 168.386 104.794 168.491 105.588L168.565 106.105C168.682 106.914 168.943 107.525 169.348 107.941C169.756 108.352 170.258 108.515 170.854 108.429C171.453 108.342 171.886 108.058 172.152 107.576C172.417 107.09 172.496 106.439 172.388 105.622L172.313 105.101ZM175.999 108.392L175.105 108.521L174.034 101.098L174.928 100.969L175.999 108.392ZM178.406 108.045L177.512 108.174L176.758 102.945L177.652 102.816L178.406 108.045ZM176.485 101.568C176.464 101.423 176.49 101.295 176.563 101.182C176.638 101.069 176.763 101 176.937 100.975C177.111 100.95 177.25 100.981 177.355 101.068C177.46 101.155 177.522 101.271 177.543 101.416C177.564 101.561 177.537 101.688 177.46 101.798C177.384 101.907 177.259 101.975 177.085 102C176.911 102.025 176.772 101.995 176.668 101.912C176.567 101.828 176.506 101.713 176.485 101.568ZM183.07 107.372C183.003 107.276 182.935 107.099 182.865 106.839C182.511 107.331 182.046 107.618 181.469 107.702C180.954 107.776 180.509 107.692 180.136 107.45C179.765 107.204 179.547 106.857 179.482 106.41C179.404 105.865 179.549 105.413 179.918 105.054C180.29 104.691 180.852 104.456 181.602 104.348L182.472 104.222L182.413 103.811C182.368 103.499 182.239 103.264 182.025 103.107C181.811 102.948 181.522 102.894 181.158 102.946C180.839 102.992 180.584 103.111 180.391 103.304C180.198 103.496 180.119 103.706 180.152 103.935L179.253 104.065C179.215 103.804 179.271 103.539 179.419 103.271C179.571 102.999 179.794 102.77 180.09 102.583C180.388 102.395 180.727 102.273 181.108 102.219C181.71 102.132 182.204 102.215 182.589 102.469C182.974 102.719 183.211 103.107 183.3 103.634L183.647 106.041C183.716 106.521 183.833 106.894 183.996 107.16L184.007 107.237L183.07 107.372ZM181.488 106.905C181.768 106.864 182.023 106.753 182.254 106.572C182.484 106.391 182.639 106.176 182.718 105.928L182.563 104.855L181.863 104.956C180.767 105.114 180.266 105.514 180.358 106.155C180.399 106.435 180.524 106.641 180.733 106.772C180.943 106.903 181.194 106.947 181.488 106.905ZM188.07 105.235C188.035 104.993 187.916 104.82 187.713 104.714C187.513 104.605 187.179 104.535 186.711 104.503C186.246 104.472 185.87 104.408 185.583 104.311C185.299 104.214 185.08 104.081 184.924 103.913C184.771 103.744 184.676 103.531 184.639 103.273C184.577 102.845 184.705 102.456 185.024 102.108C185.345 101.759 185.787 101.543 186.351 101.462C186.944 101.377 187.446 101.46 187.858 101.714C188.272 101.966 188.514 102.331 188.583 102.808L187.684 102.937C187.649 102.693 187.513 102.497 187.278 102.35C187.047 102.202 186.773 102.151 186.457 102.197C186.132 102.244 185.888 102.351 185.724 102.52C185.561 102.688 185.496 102.886 185.529 103.115C185.56 103.331 185.669 103.481 185.856 103.566C186.042 103.651 186.365 103.711 186.824 103.747C187.286 103.782 187.666 103.849 187.963 103.948C188.26 104.047 188.489 104.185 188.649 104.362C188.812 104.536 188.914 104.763 188.955 105.043C189.022 105.51 188.889 105.913 188.556 106.25C188.223 106.584 187.759 106.794 187.162 106.88C186.744 106.941 186.362 106.92 186.019 106.818C185.675 106.717 185.393 106.547 185.171 106.309C184.952 106.068 184.82 105.793 184.775 105.483L185.669 105.354C185.729 105.652 185.882 105.873 186.13 106.018C186.381 106.159 186.69 106.204 187.057 106.151C187.395 106.102 187.656 105.995 187.84 105.831C188.026 105.662 188.103 105.464 188.07 105.235Z" fill="white" fill-opacity="0.05"/>
<path d="M131.546 121.827C131.539 122.248 131.404 122.651 131.142 123.036C130.88 123.416 130.512 123.767 130.037 124.087C129.556 124.411 129.054 124.586 128.531 124.613C128.005 124.638 127.5 124.511 127.015 124.234C126.532 123.954 126.103 123.543 125.729 122.998L125.382 122.484C124.783 121.596 124.526 120.769 124.61 120.002C124.696 119.233 125.114 118.596 125.865 118.09C126.48 117.675 127.082 117.499 127.67 117.562C128.256 117.622 128.786 117.913 129.259 118.434L128.482 118.958C127.81 118.276 127.083 118.199 126.3 118.727C125.779 119.078 125.507 119.528 125.485 120.077C125.463 120.622 125.685 121.242 126.15 121.937L126.475 122.419C126.92 123.08 127.426 123.505 127.992 123.692C128.557 123.877 129.097 123.796 129.612 123.448C129.904 123.252 130.137 123.048 130.312 122.835C130.487 122.623 130.594 122.392 130.633 122.142L129.741 120.818L128.377 121.738L127.951 121.106L130.089 119.665L131.546 121.827ZM134.201 121.162L133.424 121.686L129.45 115.791L130.227 115.267L134.201 121.162ZM135.586 117.031L133.61 118.363L133.198 117.752L135.174 116.42L135.586 117.031ZM140.594 112.843C140.983 113.42 141.226 113.99 141.323 114.553C141.418 115.114 141.364 115.627 141.16 116.094C140.957 116.561 140.618 116.954 140.143 117.275C139.678 117.588 139.19 117.752 138.678 117.767C138.165 117.78 137.666 117.643 137.183 117.356C136.7 117.065 136.268 116.644 135.888 116.091L135.602 115.666C135.22 115.099 134.981 114.532 134.885 113.965C134.789 113.397 134.843 112.878 135.047 112.406C135.253 111.93 135.587 111.536 136.052 111.223C136.524 110.905 137.017 110.739 137.531 110.727C138.045 110.71 138.546 110.853 139.033 111.156C139.519 111.457 139.955 111.895 140.343 112.47L140.594 112.843ZM139.564 112.983C139.093 112.284 138.591 111.843 138.059 111.66C137.526 111.474 137.007 111.551 136.502 111.891C136.011 112.222 135.75 112.671 135.719 113.237C135.69 113.799 135.895 114.415 136.334 115.084L136.626 115.517C137.083 116.195 137.584 116.632 138.129 116.83C138.676 117.023 139.198 116.951 139.698 116.615C140.2 116.276 140.466 115.832 140.495 115.282C140.523 114.729 140.311 114.109 139.859 113.421L139.564 112.983ZM143.584 111.015C142.788 111.273 142.144 111.366 141.652 111.293C141.16 111.216 140.776 110.973 140.5 110.562C140.187 110.098 140.113 109.59 140.279 109.039C140.446 108.483 140.827 108.004 141.42 107.604C141.825 107.331 142.238 107.167 142.66 107.11C143.084 107.052 143.475 107.102 143.833 107.261C144.194 107.418 144.485 107.66 144.705 107.987L143.924 108.514C143.683 108.157 143.382 107.954 143.019 107.905C142.654 107.852 142.265 107.965 141.852 108.244C141.468 108.502 141.226 108.789 141.125 109.105C141.024 109.416 141.075 109.721 141.277 110.021C141.439 110.261 141.677 110.397 141.993 110.428C142.309 110.454 142.758 110.371 143.339 110.18C143.923 109.986 144.409 109.88 144.797 109.862C145.186 109.839 145.521 109.894 145.803 110.026C146.087 110.157 146.33 110.371 146.532 110.671C146.854 111.149 146.926 111.658 146.748 112.198C146.569 112.735 146.167 113.214 145.544 113.634C145.139 113.907 144.709 114.085 144.255 114.167C143.798 114.247 143.383 114.217 143.009 114.076C142.639 113.934 142.338 113.691 142.107 113.348L142.888 112.821C143.128 113.178 143.449 113.371 143.851 113.403C144.254 113.43 144.675 113.295 145.115 112.998C145.526 112.722 145.784 112.426 145.889 112.111C145.995 111.797 145.951 111.495 145.756 111.206C145.561 110.917 145.31 110.763 145.002 110.743C144.692 110.72 144.22 110.811 143.584 111.015Z" fill="white" fill-opacity="0.05"/>
<path d="M166.763 122.217V125H165.825V117.891H168.447C169.225 117.891 169.834 118.089 170.273 118.486C170.716 118.883 170.938 119.409 170.938 120.063C170.938 120.754 170.721 121.286 170.288 121.66C169.858 122.031 169.242 122.217 168.438 122.217H166.763ZM166.763 121.45H168.447C168.949 121.45 169.333 121.333 169.6 121.099C169.867 120.861 170 120.519 170 120.073C170 119.65 169.867 119.312 169.6 119.058C169.333 118.804 168.966 118.672 168.501 118.662H166.763V121.45ZM173.071 122.217V125H172.134V117.891H174.756C175.534 117.891 176.143 118.089 176.582 118.486C177.025 118.883 177.246 119.409 177.246 120.063C177.246 120.754 177.03 121.286 176.597 121.66C176.167 122.031 175.55 122.217 174.746 122.217H173.071ZM173.071 121.45H174.756C175.257 121.45 175.641 121.333 175.908 121.099C176.175 120.861 176.309 120.519 176.309 120.073C176.309 119.65 176.175 119.312 175.908 119.058C175.641 118.804 175.275 118.672 174.81 118.662H173.071V121.45ZM183.354 118.662H181.069V125H180.137V118.662H177.856V117.891H183.354V118.662ZM189.521 124.067C189.281 124.412 188.944 124.671 188.511 124.844C188.081 125.013 187.58 125.098 187.007 125.098C186.427 125.098 185.913 124.963 185.464 124.692C185.015 124.419 184.666 124.032 184.419 123.53C184.175 123.029 184.049 122.448 184.043 121.787V121.167C184.043 120.096 184.292 119.266 184.79 118.677C185.291 118.088 185.994 117.793 186.899 117.793C187.642 117.793 188.239 117.983 188.691 118.364C189.144 118.742 189.421 119.279 189.521 119.976H188.584C188.408 119.035 187.848 118.564 186.904 118.564C186.276 118.564 185.799 118.786 185.474 119.229C185.151 119.668 184.989 120.306 184.985 121.143V121.724C184.985 122.521 185.168 123.156 185.532 123.628C185.897 124.097 186.39 124.331 187.012 124.331C187.363 124.331 187.671 124.292 187.935 124.214C188.198 124.136 188.416 124.004 188.589 123.818V122.222H186.943V121.46H189.521V124.067ZM194.209 125C194.157 124.896 194.115 124.71 194.082 124.443C193.662 124.88 193.161 125.098 192.578 125.098C192.057 125.098 191.629 124.951 191.294 124.658C190.962 124.362 190.796 123.988 190.796 123.535C190.796 122.985 191.004 122.559 191.421 122.256C191.841 121.95 192.43 121.797 193.188 121.797H194.067V121.382C194.067 121.066 193.973 120.815 193.784 120.63C193.595 120.441 193.317 120.347 192.949 120.347C192.627 120.347 192.357 120.428 192.139 120.591C191.921 120.754 191.812 120.951 191.812 121.182H190.903C190.903 120.918 190.996 120.664 191.182 120.42C191.37 120.173 191.624 119.977 191.943 119.834C192.266 119.691 192.619 119.619 193.003 119.619C193.612 119.619 194.089 119.772 194.434 120.078C194.779 120.381 194.958 120.799 194.971 121.333V123.765C194.971 124.25 195.033 124.635 195.156 124.922V125H194.209ZM192.71 124.312C192.993 124.312 193.262 124.238 193.516 124.092C193.77 123.945 193.953 123.755 194.067 123.521V122.437H193.359C192.253 122.437 191.699 122.76 191.699 123.408C191.699 123.691 191.794 123.913 191.982 124.072C192.171 124.232 192.414 124.312 192.71 124.312ZM197.236 119.717L197.261 120.303C197.648 119.847 198.171 119.619 198.828 119.619C199.567 119.619 200.07 119.902 200.337 120.469C200.513 120.215 200.741 120.01 201.021 119.854C201.304 119.697 201.637 119.619 202.021 119.619C203.18 119.619 203.77 120.233 203.789 121.46V125H202.886V121.514C202.886 121.136 202.799 120.854 202.627 120.669C202.454 120.48 202.165 120.386 201.758 120.386C201.423 120.386 201.144 120.487 200.923 120.688C200.701 120.887 200.573 121.156 200.537 121.494V125H199.629V121.538C199.629 120.77 199.253 120.386 198.501 120.386C197.909 120.386 197.503 120.638 197.285 121.143V125H196.382V119.717H197.236ZM207.349 125.098C206.632 125.098 206.05 124.863 205.601 124.395C205.151 123.923 204.927 123.293 204.927 122.505V122.339C204.927 121.815 205.026 121.348 205.225 120.938C205.426 120.524 205.706 120.202 206.064 119.971C206.426 119.736 206.816 119.619 207.236 119.619C207.923 119.619 208.457 119.845 208.838 120.298C209.219 120.75 209.409 121.398 209.409 122.241V122.617H205.83C205.843 123.138 205.994 123.56 206.284 123.882C206.577 124.201 206.948 124.36 207.397 124.36C207.716 124.36 207.987 124.295 208.208 124.165C208.429 124.035 208.623 123.862 208.789 123.647L209.341 124.077C208.898 124.757 208.234 125.098 207.349 125.098ZM207.236 120.361C206.872 120.361 206.566 120.495 206.318 120.762C206.071 121.025 205.918 121.396 205.859 121.875H208.506V121.807C208.48 121.348 208.356 120.993 208.135 120.742C207.913 120.488 207.614 120.361 207.236 120.361ZM213.535 123.599C213.535 123.354 213.442 123.166 213.257 123.032C213.075 122.896 212.754 122.778 212.295 122.681C211.839 122.583 211.476 122.466 211.206 122.329C210.939 122.192 210.741 122.03 210.61 121.841C210.483 121.652 210.42 121.427 210.42 121.167C210.42 120.734 210.602 120.368 210.967 120.068C211.335 119.769 211.803 119.619 212.373 119.619C212.972 119.619 213.457 119.774 213.828 120.083C214.202 120.392 214.39 120.788 214.39 121.27H213.481C213.481 121.022 213.376 120.809 213.164 120.63C212.956 120.451 212.692 120.361 212.373 120.361C212.044 120.361 211.787 120.433 211.602 120.576C211.416 120.719 211.323 120.907 211.323 121.138C211.323 121.356 211.41 121.52 211.582 121.631C211.755 121.742 212.065 121.847 212.515 121.948C212.967 122.049 213.333 122.17 213.613 122.31C213.893 122.45 214.1 122.619 214.233 122.817C214.37 123.013 214.438 123.252 214.438 123.535C214.438 124.007 214.25 124.386 213.872 124.673C213.494 124.956 213.005 125.098 212.402 125.098C211.979 125.098 211.605 125.023 211.279 124.873C210.954 124.723 210.698 124.515 210.513 124.248C210.33 123.978 210.239 123.687 210.239 123.374H211.143C211.159 123.677 211.279 123.918 211.504 124.097C211.732 124.272 212.031 124.36 212.402 124.36C212.744 124.36 213.018 124.292 213.223 124.155C213.431 124.015 213.535 123.83 213.535 123.599Z" fill="white" fill-opacity="0.05"/>
<g filter="url(#filter2_b_2_43)">
<path d="M200.5 151.67C203.833 153.594 203.833 158.406 200.5 160.33L137.5 196.703C134.167 198.628 130 196.222 130 192.373V119.627C130 115.778 134.167 113.372 137.5 115.297L200.5 151.67Z" fill="black" fill-opacity="0.3"/>
<path d="M199.5 153.402C201.5 154.557 201.5 157.443 199.5 158.598L136.5 194.971C134.5 196.126 132 194.682 132 192.373V119.627C132 117.318 134.5 115.874 136.5 117.029L199.5 153.402Z" stroke="white" stroke-opacity="0.1" stroke-width="4"/>
</g>
<defs>
<filter id="filter0_i_2_43" x="81" y="81" width="150" height="150" filterUnits="userSpaceOnUse" color-interpolation-filters="sRGB">
<feFlood flood-opacity="0" result="BackgroundImageFix"/>
<feBlend mode="normal" in="SourceGraphic" in2="BackgroundImageFix" result="shape"/>
<feColorMatrix in="SourceAlpha" type="matrix" values="0 0 0 0 0 0 0 0 0 0 0 0 0 0 0 0 0 0 127 0" result="hardAlpha"/>
<feOffset/>
<feGaussianBlur stdDeviation="20"/>
<feComposite in2="hardAlpha" operator="arithmetic" k2="-1" k3="1"/>
<feColorMatrix type="matrix" values="0 0 0 0 0 0 0 0 0 0 0 0 0 0 0 0 0 0 0.1 0"/>
<feBlend mode="normal" in2="shape" result="effect1_innerShadow_2_43"/>
</filter>
<filter id="filter1_i_2_43" x="81.4141" y="81.4146" width="149.171" height="149.171" filterUnits="userSpaceOnUse" color-interpolation-filters="sRGB">
<feFlood flood-opacity="0" result="BackgroundImageFix"/>
<feBlend mode="normal" in="SourceGraphic" in2="BackgroundImageFix" result="shape"/>
<feColorMatrix in="SourceAlpha" type="matrix" values="0 0 0 0 0 0 0 0 0 0 0 0 0 0 0 0 0 0 127 0" result="hardAlpha"/>
<feOffset/>
<feGaussianBlur stdDeviation="20"/>
<feComposite in2="hardAlpha" operator="arithmetic" k2="-1" k3="1"/>
<feColorMatrix type="matrix" values="0 0 0 0 0 0 0 0 0 0 0 0 0 0 0 0 0 0 0.1 0"/>
<feBlend mode="normal" in2="shape" result="effect1_innerShadow_2_43"/>
</filter>
<filter id="filter2_b_2_43" x="110" y="94.6195" width="113" height="122.761" filterUnits="userSpaceOnUse" color-interpolation-filters="sRGB">
<feFlood flood-opacity="0" result="BackgroundImageFix"/>
<feGaussianBlur in="BackgroundImageFix" stdDeviation="10"/>
<feComposite in2="SourceAlpha" operator="in" result="effect1_backgroundBlur_2_43"/>
<feBlend mode="normal" in="SourceGraphic" in2="effect1_backgroundBlur_2_43" result="shape"/>
</filter>
<linearGradient id="paint0_linear_2_43" x1="369.13" y1="256.81" x2="206.472" y2="1.34007" gradientUnits="userSpaceOnUse">
<stop stop-color="#FB2C77"/>
<stop offset="1" stop-color="#FF2E00"/>
</linearGradient>
<linearGradient id="paint1_linear_2_43" x1="367.952" y1="256.253" x2="206.193" y2="2.19478" gradientUnits="userSpaceOnUse">
<stop stop-color="#FB2C77"/>
<stop offset="1" stop-color="#FF2E00"/>
</linearGradient>
</defs>
</svg>
