<svg width="312" height="312" viewBox="0 0 312 312" fill="none" xmlns="http://www.w3.org/2000/svg">
<rect width="312" height="312" rx="10" fill="white"/>
<mask id="path-2-inside-1_1_18" fill="white">
<path d="M241 156C241 197.421 207.421 231 166 231C124.579 231 91 197.421 91 156C91 114.579 124.579 81 166 81C207.421 81 241 114.579 241 156Z"/>
</mask>
<g filter="url(#filter0_i_1_18)">
<path d="M241 156C241 197.421 207.421 231 166 231C124.579 231 91 197.421 91 156C91 114.579 124.579 81 166 81C207.421 81 241 114.579 241 156Z" fill="url(#paint0_linear_1_18)"/>
</g>
<path d="M237 156C237 195.212 205.212 227 166 227V235C209.63 235 245 199.63 245 156H237ZM166 227C126.788 227 95 195.212 95 156H87C87 199.63 122.37 235 166 235V227ZM95 156C95 116.788 126.788 85 166 85V77C122.37 77 87 112.37 87 156H95ZM166 85C205.212 85 237 116.788 237 156H245C245 112.37 209.63 77 166 77V85Z" fill="#0047FF" fill-opacity="0.3" mask="url(#path-2-inside-1_1_18)"/>
<mask id="path-4-inside-2_1_18" fill="white">
<path fill-rule="evenodd" clip-rule="evenodd" d="M96.3742 152C93.5097 152 91.215 149.591 91.5648 146.747C95.7943 112.37 123.286 85.1915 157.81 81.4422C160.632 81.1357 163 83.4211 163 86.2596V147C163 149.762 160.761 152 158 152H96.3742ZM96.2591 159C93.4206 159 91.1352 161.368 91.4417 164.19C95.2296 199.069 122.931 226.77 157.81 230.558C160.632 230.865 163 228.579 163 225.741V164C163 161.239 160.761 159 158 159H96.2591ZM175 159C172.238 159 170 161.239 170 164V225.626C170 228.49 172.409 230.785 175.252 230.435C209.63 226.206 236.808 198.714 240.558 164.19C240.864 161.368 238.579 159 235.74 159H175ZM235.625 152C238.49 152 240.784 149.591 240.435 146.748C236.249 112.724 209.276 85.7513 175.252 81.5653C172.409 81.2155 170 83.5102 170 86.3747V147C170 149.762 172.238 152 175 152H235.625Z"/>
</mask>
<g filter="url(#filter1_i_1_18)">
<path fill-rule="evenodd" clip-rule="evenodd" d="M96.3742 152C93.5097 152 91.215 149.591 91.5648 146.747C95.7943 112.37 123.286 85.1915 157.81 81.4422C160.632 81.1357 163 83.4211 163 86.2596V147C163 149.762 160.761 152 158 152H96.3742ZM96.2591 159C93.4206 159 91.1352 161.368 91.4417 164.19C95.2296 199.069 122.931 226.77 157.81 230.558C160.632 230.865 163 228.579 163 225.741V164C163 161.239 160.761 159 158 159H96.2591ZM175 159C172.238 159 170 161.239 170 164V225.626C170 228.49 172.409 230.785 175.252 230.435C209.63 226.206 236.808 198.714 240.558 164.19C240.864 161.368 238.579 159 235.74 159H175ZM235.625 152C238.49 152 240.784 149.591 240.435 146.748C236.249 112.724 209.276 85.7513 175.252 81.5653C172.409 81.2155 170 83.5102 170 86.3747V147C170 149.762 172.238 152 175 152H235.625Z" fill="url(#paint1_linear_1_18)"/>
</g>
<path d="M240.435 146.748L244.405 146.259L240.435 146.748ZM240.558 164.19L244.534 164.622L240.558 164.19ZM175.252 230.435L174.764 226.465L175.252 230.435ZM157.81 230.558L158.242 226.582L157.81 230.558ZM91.5648 146.747L87.5947 146.259L91.5648 146.747ZM157.378 77.4656C121.005 81.4157 92.0507 110.041 87.5947 146.259L95.5349 147.236C99.538 114.699 125.567 88.9674 158.242 85.4188L157.378 77.4656ZM167 147V86.2596H159V147H167ZM96.3742 156H158V148H96.3742V156ZM87.4651 164.622C91.4558 201.368 120.632 230.544 157.378 234.535L158.242 226.582C125.23 222.996 99.0034 196.77 95.4183 163.758L87.4651 164.622ZM167 225.741V164H159V225.741H167ZM158 155H96.2591V163H158V155ZM166 164V225.626H174V164H166ZM175.741 234.405C211.959 229.949 240.584 200.994 244.534 164.622L236.581 163.758C233.033 196.433 207.301 222.462 174.764 226.465L175.741 234.405ZM235.74 155H175V163H235.74V155ZM244.405 146.259C239.994 110.413 211.587 82.0054 175.741 77.5952L174.764 85.5354C206.966 89.4972 232.503 115.034 236.465 147.236L244.405 146.259ZM166 86.3747V147H174V86.3747H166ZM175 156H235.625V148H175V156ZM166 147C166 151.971 170.029 156 175 156V148C174.447 148 174 147.552 174 147H166ZM175.741 77.5952C170.328 76.9292 166 81.2978 166 86.3747H174C174 86.0792 174.121 85.845 174.279 85.6979C174.426 85.5618 174.583 85.513 174.764 85.5354L175.741 77.5952ZM236.465 147.236C236.487 147.417 236.438 147.574 236.302 147.72C236.155 147.879 235.921 148 235.625 148V156C240.702 156 245.071 151.672 244.405 146.259L236.465 147.236ZM244.534 164.622C245.117 159.252 240.773 155 235.74 155V163C236.033 163 236.266 163.119 236.414 163.276C236.55 163.422 236.601 163.578 236.581 163.758L244.534 164.622ZM166 225.626C166 230.703 170.328 235.071 175.741 234.405L174.764 226.465C174.583 226.487 174.426 226.439 174.279 226.302C174.121 226.155 174 225.921 174 225.626H166ZM174 164C174 163.448 174.447 163 175 163V155C170.029 155 166 159.03 166 164H174ZM167 164C167 159.03 162.97 155 158 155V163C158.552 163 159 163.448 159 164H167ZM157.378 234.535C162.747 235.118 167 230.773 167 225.741H159C159 226.033 158.881 226.266 158.724 226.414C158.578 226.551 158.422 226.601 158.242 226.582L157.378 234.535ZM95.4183 163.758C95.3987 163.578 95.4491 163.422 95.5858 163.276C95.7334 163.119 95.9666 163 96.2591 163V155C91.2267 155 86.882 159.253 87.4651 164.622L95.4183 163.758ZM159 147C159 147.552 158.552 148 158 148V156C162.97 156 167 151.971 167 147H159ZM87.5947 146.259C86.9288 151.672 91.2972 156 96.3742 156V148C96.0788 148 95.8446 147.879 95.6974 147.72C95.5613 147.574 95.5126 147.417 95.5349 147.236L87.5947 146.259ZM158.242 85.4188C158.422 85.3992 158.578 85.4496 158.724 85.5863C158.881 85.7339 159 85.9671 159 86.2596H167C167 81.2272 162.747 76.8825 157.378 77.4656L158.242 85.4188Z" fill="white" fill-opacity="0.3" mask="url(#path-4-inside-2_1_18)"/>
<circle cx="110" cy="156" r="39" fill="url(#paint2_linear_1_18)"/>
<circle cx="110" cy="156" r="37" stroke="white" stroke-opacity="0.3" stroke-width="4"/>
<path d="M103.461 158.641V172H98.9609V137.875H111.547C115.281 137.875 118.203 138.828 120.312 140.734C122.438 142.641 123.5 145.164 123.5 148.305C123.5 151.617 122.461 154.172 120.383 155.969C118.32 157.75 115.359 158.641 111.5 158.641H103.461ZM103.461 154.961H111.547C113.953 154.961 115.797 154.398 117.078 153.273C118.359 152.133 119 150.492 119 148.352C119 146.32 118.359 144.695 117.078 143.477C115.797 142.258 114.039 141.625 111.805 141.578H103.461V154.961Z" fill="white" fill-opacity="0.3"/>
<path d="M124.533 110.263H127.624V111H123.43V110.336L126.345 106.464H123.474V105.717H127.478V106.356L124.533 110.263ZM131.906 110.478C131.555 110.891 131.039 111.098 130.358 111.098C129.795 111.098 129.366 110.935 129.069 110.609C128.776 110.281 128.628 109.796 128.625 109.154V105.717H129.528V109.13C129.528 109.931 129.854 110.331 130.505 110.331C131.195 110.331 131.654 110.074 131.882 109.56V105.717H132.785V111H131.926L131.906 110.478ZM135.144 111H134.24V103.5H135.144V111ZM136.354 108.31C136.354 107.792 136.455 107.326 136.657 106.913C136.862 106.5 137.146 106.181 137.507 105.956C137.871 105.731 138.286 105.619 138.752 105.619C139.471 105.619 140.052 105.868 140.495 106.366C140.941 106.864 141.164 107.527 141.164 108.354V108.417C141.164 108.931 141.065 109.394 140.866 109.804C140.671 110.211 140.389 110.528 140.021 110.756C139.657 110.984 139.237 111.098 138.762 111.098C138.046 111.098 137.465 110.849 137.019 110.351C136.576 109.853 136.354 109.193 136.354 108.373V108.31ZM137.263 108.417C137.263 109.003 137.398 109.473 137.668 109.828C137.941 110.183 138.306 110.36 138.762 110.36C139.221 110.36 139.585 110.181 139.855 109.823C140.126 109.462 140.261 108.957 140.261 108.31C140.261 107.73 140.122 107.261 139.846 106.903C139.572 106.542 139.208 106.361 138.752 106.361C138.306 106.361 137.946 106.539 137.673 106.894C137.399 107.248 137.263 107.756 137.263 108.417Z" fill="#FF000F" fill-opacity="0.04"/>
<path d="M177.1 170.978L176.954 173.758L176.018 173.709L176.391 166.609L179.009 166.747C179.786 166.788 180.384 167.018 180.802 167.437C181.223 167.857 181.416 168.394 181.382 169.047C181.346 169.736 181.102 170.257 180.65 170.608C180.201 170.956 179.575 171.109 178.772 171.066L177.1 170.978ZM177.14 170.213L178.822 170.301C179.323 170.328 179.713 170.231 179.992 170.011C180.271 169.788 180.422 169.453 180.445 169.008C180.468 168.585 180.352 168.24 180.099 167.973C179.846 167.705 179.487 167.554 179.022 167.52L177.287 167.429L177.14 170.213ZM184.961 169.7C184.826 169.67 184.678 169.651 184.519 169.642C183.928 169.611 183.513 169.842 183.275 170.335L183.078 174.08L182.176 174.032L182.453 168.756L183.331 168.803L183.314 169.413C183.634 168.957 184.066 168.743 184.609 168.772C184.784 168.781 184.917 168.811 185.005 168.861L184.961 169.7ZM185.365 171.506C185.392 170.989 185.517 170.529 185.741 170.127C185.967 169.725 186.267 169.421 186.639 169.216C187.015 169.011 187.435 168.921 187.9 168.945C188.619 168.983 189.186 169.262 189.602 169.783C190.021 170.303 190.209 170.977 190.166 171.802L190.162 171.866C190.135 172.379 190.012 172.836 189.792 173.235C189.576 173.631 189.278 173.933 188.898 174.141C188.522 174.35 188.097 174.441 187.622 174.416C186.907 174.379 186.34 174.1 185.921 173.579C185.505 173.058 185.318 172.388 185.362 171.569L185.365 171.506ZM186.266 171.661C186.235 172.246 186.346 172.723 186.597 173.091C186.851 173.46 187.206 173.656 187.661 173.68C188.119 173.704 188.493 173.545 188.782 173.201C189.07 172.855 189.232 172.358 189.266 171.711C189.296 171.132 189.183 170.657 188.925 170.285C188.671 169.91 188.316 169.71 187.861 169.686C187.416 169.663 187.047 169.821 186.756 170.161C186.464 170.501 186.301 171.001 186.266 171.661ZM192.367 169.278L192.057 175.163C192.004 176.177 191.517 176.66 190.597 176.612C190.399 176.601 190.217 176.562 190.051 176.495L190.089 175.773C190.191 175.805 190.327 175.825 190.496 175.834C190.698 175.845 190.854 175.797 190.963 175.692C191.076 175.591 191.14 175.405 191.154 175.135L191.464 169.23L192.367 169.278ZM191.445 167.826C191.453 167.683 191.503 167.563 191.596 167.467C191.693 167.368 191.827 167.323 191.999 167.332C192.175 167.341 192.306 167.398 192.391 167.504C192.477 167.61 192.516 167.735 192.508 167.882C192.501 168.028 192.449 168.148 192.353 168.24C192.256 168.333 192.121 168.375 191.945 168.366C191.77 168.356 191.64 168.301 191.558 168.198C191.475 168.096 191.438 167.972 191.445 167.826ZM195.731 174.843C195.016 174.805 194.447 174.541 194.023 174.049C193.599 173.554 193.408 172.913 193.449 172.126L193.458 171.961C193.485 171.437 193.609 170.976 193.829 170.577C194.052 170.175 194.348 169.867 194.718 169.655C195.091 169.44 195.487 169.344 195.907 169.366C196.593 169.402 197.114 169.656 197.471 170.128C197.827 170.6 197.983 171.256 197.939 172.098L197.919 172.474L194.345 172.286C194.331 172.807 194.46 173.236 194.732 173.573C195.008 173.907 195.37 174.085 195.819 174.109C196.137 174.126 196.411 174.075 196.639 173.957C196.866 173.838 197.069 173.676 197.246 173.47L197.774 173.928C197.297 174.584 196.616 174.889 195.731 174.843ZM195.868 170.107C195.504 170.088 195.191 170.205 194.93 170.459C194.669 170.709 194.497 171.072 194.413 171.546L197.056 171.685L197.06 171.617C197.058 171.157 196.953 170.796 196.745 170.535C196.537 170.269 196.245 170.127 195.868 170.107ZM200.992 174.381C201.314 174.398 201.6 174.315 201.851 174.133C202.102 173.95 202.248 173.714 202.29 173.422L203.143 173.467C203.111 173.769 202.992 174.051 202.785 174.314C202.579 174.577 202.311 174.781 201.981 174.927C201.654 175.073 201.311 175.136 200.954 175.117C200.235 175.079 199.676 174.81 199.275 174.31C198.878 173.807 198.701 173.139 198.745 172.307L198.753 172.156C198.78 171.642 198.898 171.19 199.107 170.801C199.317 170.411 199.603 170.114 199.966 169.912C200.332 169.709 200.755 169.621 201.236 169.646C201.828 169.677 202.31 169.88 202.681 170.255C203.056 170.63 203.241 171.101 203.237 171.668L202.384 171.623C202.376 171.28 202.261 170.994 202.038 170.764C201.819 170.531 201.539 170.405 201.197 170.387C200.739 170.363 200.374 170.51 200.103 170.828C199.836 171.144 199.686 171.613 199.653 172.237L199.644 172.408C199.612 173.016 199.712 173.491 199.945 173.832C200.179 174.174 200.527 174.357 200.992 174.381ZM205.638 168.694L205.571 169.972L206.556 170.023L206.519 170.721L205.534 170.669L205.362 173.941C205.351 174.152 205.387 174.314 205.469 174.426C205.551 174.534 205.698 174.594 205.909 174.605C206.013 174.611 206.157 174.599 206.341 174.569L206.303 175.301C206.062 175.353 205.83 175.374 205.605 175.362C205.202 175.341 204.905 175.203 204.713 174.948C204.521 174.694 204.437 174.342 204.46 173.893L204.632 170.622L203.672 170.571L203.708 169.874L204.669 169.924L204.736 168.647L205.638 168.694ZM176.47 182.962L176.324 185.741L175.388 185.692L175.761 178.593L178.379 178.73C179.156 178.771 179.754 179.001 180.172 179.421C180.593 179.841 180.786 180.377 180.752 181.031C180.716 181.72 180.472 182.24 180.02 182.591C179.571 182.939 178.945 183.092 178.142 183.05L176.47 182.962ZM176.51 182.196L178.192 182.285C178.693 182.311 179.083 182.214 179.362 181.994C179.641 181.771 179.792 181.437 179.815 180.991C179.838 180.569 179.722 180.224 179.469 179.956C179.216 179.688 178.857 179.538 178.392 179.503L176.657 179.412L176.51 182.196ZM181.38 183.313C181.407 182.796 181.533 182.337 181.756 181.934C181.982 181.532 182.282 181.229 182.655 181.023C183.03 180.818 183.451 180.728 183.916 180.752C184.634 180.79 185.201 181.069 185.617 181.59C186.036 182.11 186.224 182.784 186.181 183.609L186.178 183.673C186.151 184.186 186.027 184.643 185.807 185.042C185.591 185.438 185.293 185.74 184.914 185.948C184.538 186.157 184.112 186.249 183.638 186.224C182.923 186.186 182.355 185.907 181.936 185.386C181.52 184.865 181.334 184.196 181.377 183.376L181.38 183.313ZM182.282 183.468C182.251 184.053 182.361 184.53 182.612 184.898C182.867 185.267 183.221 185.463 183.676 185.487C184.135 185.511 184.508 185.352 184.797 185.008C185.086 184.662 185.247 184.165 185.281 183.518C185.311 182.939 185.198 182.464 184.94 182.092C184.686 181.717 184.332 181.517 183.877 181.493C183.431 181.47 183.063 181.628 182.771 181.968C182.479 182.308 182.316 182.808 182.282 183.468ZM191.91 185.314L193.136 181.335L194.038 181.382L192.225 186.577L191.493 186.539L190.421 182.473L188.963 186.406L188.231 186.367L186.978 181.011L187.875 181.058L188.706 185.062L190.142 181.177L190.869 181.215L191.91 185.314ZM196.867 186.919C196.151 186.881 195.582 186.617 195.158 186.125C194.734 185.63 194.543 184.989 194.584 184.203L194.593 184.037C194.62 183.513 194.744 183.052 194.964 182.653C195.187 182.251 195.484 181.944 195.853 181.732C196.226 181.517 196.623 181.42 197.042 181.442C197.728 181.478 198.249 181.732 198.606 182.204C198.962 182.676 199.118 183.333 199.074 184.175L199.054 184.55L195.48 184.362C195.466 184.883 195.595 185.312 195.867 185.649C196.143 185.983 196.505 186.162 196.954 186.185C197.273 186.202 197.546 186.151 197.774 186.033C198.002 185.914 198.204 185.752 198.381 185.546L198.91 186.004C198.432 186.661 197.751 186.965 196.867 186.919ZM197.003 182.183C196.639 182.164 196.326 182.281 196.065 182.535C195.804 182.785 195.632 183.148 195.549 183.623L198.191 183.762L198.195 183.693C198.193 183.234 198.088 182.873 197.88 182.611C197.673 182.346 197.38 182.203 197.003 182.183ZM202.763 182.652C202.627 182.622 202.48 182.603 202.321 182.595C201.729 182.564 201.314 182.795 201.077 183.287L200.88 187.032L199.978 186.985L200.255 181.709L201.133 181.755L201.115 182.365C201.436 181.909 201.868 181.696 202.411 181.724C202.586 181.734 202.718 181.763 202.807 181.814L202.763 182.652ZM207.954 184.817C207.912 185.62 207.694 186.258 207.301 186.729C206.908 187.201 206.398 187.42 205.77 187.387C205.13 187.353 204.637 187.124 204.291 186.698L204.157 189.238L203.255 189.191L203.639 181.887L204.463 181.93L204.476 182.517C204.868 182.082 205.39 181.881 206.043 181.915C206.677 181.949 207.165 182.214 207.507 182.711C207.853 183.208 208.003 183.883 207.958 184.735L207.954 184.817ZM207.057 184.668C207.089 184.073 206.987 183.596 206.751 183.238C206.516 182.881 206.177 182.69 205.735 182.667C205.189 182.638 204.766 182.859 204.468 183.329L204.335 185.85C204.58 186.345 204.98 186.607 205.536 186.636C205.968 186.659 206.32 186.506 206.592 186.178C206.867 185.847 207.022 185.344 207.057 184.668ZM208.872 184.758C208.899 184.241 209.024 183.782 209.247 183.379C209.474 182.977 209.773 182.674 210.146 182.468C210.522 182.263 210.942 182.173 211.407 182.197C212.125 182.235 212.693 182.514 213.108 183.035C213.528 183.556 213.716 184.229 213.672 185.054L213.669 185.118C213.642 185.631 213.518 186.088 213.299 186.487C213.082 186.883 212.784 187.185 212.405 187.394C212.029 187.602 211.604 187.694 211.129 187.669C210.414 187.631 209.847 187.352 209.428 186.831C209.012 186.311 208.825 185.641 208.868 184.822L208.872 184.758ZM209.773 184.913C209.742 185.498 209.852 185.975 210.103 186.344C210.358 186.712 210.713 186.909 211.168 186.932C211.626 186.957 212 186.797 212.288 186.453C212.577 186.107 212.738 185.61 212.772 184.963C212.803 184.385 212.689 183.909 212.432 183.537C212.178 183.162 211.823 182.962 211.368 182.938C210.923 182.915 210.554 183.073 210.262 183.413C209.971 183.753 209.808 184.253 209.773 184.913ZM215.645 187.808L214.743 187.761L215.02 182.485L215.922 182.532L215.645 187.808ZM215.02 181.082C215.028 180.935 215.078 180.814 215.171 180.718C215.268 180.622 215.404 180.579 215.579 180.588C215.755 180.597 215.885 180.655 215.971 180.76C216.057 180.866 216.096 180.992 216.088 181.138C216.08 181.284 216.029 181.404 215.932 181.496C215.836 181.589 215.7 181.631 215.525 181.622C215.349 181.612 215.219 181.557 215.133 181.454C215.05 181.352 215.013 181.228 215.02 181.082ZM218.223 182.653L218.218 183.318C218.648 182.832 219.188 182.606 219.838 182.64C220.953 182.699 221.482 183.358 221.426 184.616L221.242 188.103L220.34 188.055L220.524 184.564C220.541 184.183 220.468 183.898 220.305 183.706C220.145 183.516 219.885 183.411 219.524 183.392C219.232 183.376 218.971 183.441 218.742 183.585C218.512 183.73 218.329 183.925 218.192 184.172L217.995 187.932L217.093 187.884L217.37 182.609L218.223 182.653ZM224.171 181.685L224.104 182.962L225.089 183.014L225.052 183.712L224.067 183.66L223.895 186.932C223.884 187.143 223.92 187.305 224.002 187.416C224.084 187.525 224.231 187.585 224.442 187.596C224.546 187.601 224.69 187.589 224.874 187.56L224.836 188.291C224.595 188.344 224.363 188.364 224.138 188.353C223.735 188.331 223.438 188.194 223.246 187.939C223.054 187.684 222.97 187.333 222.993 186.884L223.165 183.612L222.205 183.562L222.241 182.865L223.202 182.915L223.269 181.638L224.171 181.685Z" fill="#FF000F" fill-opacity="0.04"/>
<path d="M183.301 105.422C183.401 106.111 183.372 106.73 183.214 107.279C183.056 107.825 182.784 108.264 182.398 108.596C182.011 108.928 181.535 109.135 180.968 109.217C180.414 109.296 179.903 109.232 179.435 109.023C178.967 108.811 178.578 108.471 178.267 108.003C177.959 107.531 177.753 106.964 177.651 106.301L177.578 105.793C177.48 105.117 177.512 104.502 177.672 103.95C177.833 103.397 178.107 102.953 178.496 102.617C178.888 102.278 179.361 102.068 179.915 101.988C180.479 101.907 180.995 101.972 181.463 102.184C181.934 102.393 182.322 102.739 182.629 103.225C182.936 103.707 183.138 104.291 183.237 104.977L183.301 105.422ZM182.313 105.101C182.192 104.266 181.933 103.651 181.533 103.254C181.134 102.855 180.633 102.699 180.03 102.786C179.444 102.87 179.014 103.161 178.74 103.657C178.469 104.15 178.386 104.794 178.491 105.588L178.565 106.105C178.682 106.914 178.943 107.525 179.348 107.941C179.756 108.352 180.258 108.515 180.854 108.429C181.453 108.342 181.886 108.058 182.152 107.576C182.417 107.09 182.496 106.439 182.388 105.622L182.313 105.101ZM185.999 108.392L185.105 108.521L184.034 101.098L184.928 100.969L185.999 108.392ZM188.406 108.045L187.512 108.174L186.758 102.945L187.652 102.816L188.406 108.045ZM186.485 101.568C186.464 101.423 186.49 101.295 186.563 101.182C186.638 101.069 186.763 101 186.937 100.975C187.111 100.95 187.25 100.981 187.355 101.068C187.46 101.155 187.522 101.271 187.543 101.416C187.564 101.561 187.537 101.688 187.46 101.798C187.384 101.907 187.259 101.975 187.085 102C186.911 102.025 186.772 101.995 186.668 101.912C186.567 101.828 186.506 101.713 186.485 101.568ZM193.07 107.372C193.003 107.276 192.935 107.099 192.865 106.839C192.511 107.331 192.046 107.618 191.469 107.702C190.954 107.776 190.509 107.692 190.136 107.45C189.765 107.204 189.547 106.857 189.482 106.41C189.404 105.865 189.549 105.413 189.918 105.054C190.29 104.691 190.852 104.456 191.602 104.348L192.472 104.222L192.413 103.811C192.368 103.499 192.239 103.264 192.025 103.107C191.811 102.948 191.522 102.894 191.158 102.946C190.839 102.992 190.584 103.111 190.391 103.304C190.198 103.496 190.119 103.706 190.152 103.935L189.253 104.065C189.215 103.804 189.271 103.539 189.419 103.271C189.571 102.999 189.794 102.77 190.09 102.583C190.388 102.395 190.727 102.273 191.108 102.219C191.71 102.132 192.204 102.215 192.589 102.469C192.974 102.719 193.211 103.107 193.3 103.634L193.647 106.041C193.716 106.521 193.833 106.894 193.996 107.16L194.007 107.237L193.07 107.372ZM191.488 106.905C191.768 106.864 192.023 106.753 192.254 106.572C192.484 106.391 192.639 106.176 192.718 105.928L192.563 104.855L191.863 104.956C190.767 105.114 190.266 105.514 190.358 106.155C190.399 106.435 190.524 106.641 190.733 106.772C190.943 106.903 191.194 106.947 191.488 106.905ZM198.07 105.235C198.035 104.993 197.916 104.82 197.713 104.714C197.513 104.605 197.179 104.535 196.711 104.503C196.246 104.472 195.87 104.408 195.583 104.311C195.299 104.214 195.08 104.081 194.924 103.913C194.771 103.744 194.676 103.531 194.639 103.273C194.577 102.845 194.705 102.456 195.024 102.108C195.345 101.759 195.787 101.543 196.351 101.462C196.944 101.377 197.446 101.46 197.858 101.714C198.272 101.966 198.514 102.331 198.583 102.808L197.684 102.937C197.649 102.693 197.513 102.497 197.278 102.35C197.047 102.202 196.773 102.151 196.457 102.197C196.132 102.244 195.888 102.351 195.724 102.52C195.561 102.688 195.496 102.886 195.529 103.115C195.56 103.331 195.669 103.481 195.856 103.566C196.042 103.651 196.365 103.711 196.824 103.747C197.286 103.782 197.666 103.849 197.963 103.948C198.26 104.047 198.489 104.185 198.649 104.362C198.812 104.536 198.914 104.763 198.955 105.043C199.022 105.51 198.889 105.913 198.556 106.25C198.223 106.584 197.759 106.794 197.162 106.88C196.744 106.941 196.362 106.92 196.019 106.818C195.675 106.717 195.393 106.547 195.171 106.309C194.952 106.068 194.82 105.793 194.775 105.483L195.669 105.354C195.729 105.652 195.882 105.873 196.13 106.018C196.381 106.159 196.69 106.204 197.057 106.151C197.395 106.102 197.656 105.995 197.84 105.831C198.026 105.662 198.103 105.464 198.07 105.235Z" fill="#FF000F" fill-opacity="0.04"/>
<path d="M141.546 121.827C141.539 122.248 141.404 122.651 141.142 123.036C140.88 123.416 140.512 123.767 140.037 124.087C139.556 124.411 139.054 124.586 138.531 124.613C138.005 124.638 137.5 124.511 137.015 124.234C136.532 123.954 136.103 123.543 135.729 122.998L135.382 122.484C134.783 121.596 134.526 120.769 134.61 120.002C134.696 119.233 135.114 118.596 135.865 118.09C136.48 117.675 137.082 117.499 137.67 117.562C138.256 117.622 138.786 117.913 139.259 118.434L138.482 118.958C137.81 118.276 137.083 118.199 136.3 118.727C135.779 119.078 135.507 119.528 135.485 120.077C135.463 120.622 135.685 121.242 136.15 121.937L136.475 122.419C136.92 123.08 137.426 123.505 137.992 123.692C138.557 123.877 139.097 123.796 139.612 123.448C139.904 123.252 140.137 123.048 140.312 122.835C140.487 122.623 140.594 122.392 140.633 122.142L139.741 120.818L138.377 121.738L137.951 121.106L140.089 119.665L141.546 121.827ZM144.201 121.162L143.424 121.686L139.45 115.791L140.227 115.267L144.201 121.162ZM145.586 117.031L143.61 118.363L143.198 117.752L145.174 116.42L145.586 117.031ZM150.594 112.843C150.983 113.42 151.226 113.99 151.323 114.553C151.418 115.114 151.364 115.627 151.16 116.094C150.957 116.561 150.618 116.954 150.143 117.275C149.678 117.588 149.19 117.752 148.678 117.767C148.165 117.78 147.666 117.643 147.183 117.356C146.7 117.065 146.268 116.644 145.888 116.091L145.602 115.666C145.22 115.099 144.981 114.532 144.885 113.965C144.789 113.397 144.843 112.878 145.047 112.406C145.253 111.93 145.587 111.536 146.052 111.223C146.524 110.905 147.017 110.739 147.531 110.727C148.045 110.71 148.546 110.853 149.033 111.156C149.519 111.457 149.955 111.895 150.343 112.47L150.594 112.843ZM149.564 112.983C149.093 112.284 148.591 111.843 148.059 111.66C147.526 111.474 147.007 111.551 146.502 111.891C146.011 112.222 145.75 112.671 145.719 113.237C145.69 113.799 145.895 114.415 146.334 115.084L146.626 115.517C147.083 116.195 147.584 116.632 148.129 116.83C148.676 117.023 149.198 116.951 149.698 116.615C150.2 116.276 150.466 115.832 150.495 115.282C150.523 114.729 150.311 114.109 149.859 113.421L149.564 112.983ZM153.584 111.015C152.788 111.273 152.144 111.366 151.652 111.293C151.16 111.216 150.776 110.973 150.5 110.562C150.187 110.098 150.113 109.59 150.279 109.039C150.446 108.483 150.827 108.004 151.42 107.604C151.825 107.331 152.238 107.167 152.66 107.11C153.084 107.052 153.475 107.102 153.833 107.261C154.194 107.418 154.485 107.66 154.705 107.987L153.924 108.514C153.683 108.157 153.382 107.954 153.019 107.905C152.654 107.852 152.265 107.965 151.852 108.244C151.468 108.502 151.226 108.789 151.125 109.105C151.024 109.416 151.075 109.721 151.277 110.021C151.439 110.261 151.677 110.397 151.993 110.428C152.309 110.454 152.758 110.371 153.339 110.18C153.923 109.986 154.409 109.88 154.797 109.862C155.186 109.839 155.521 109.894 155.803 110.026C156.087 110.157 156.33 110.371 156.532 110.671C156.854 111.149 156.926 111.658 156.748 112.198C156.569 112.735 156.167 113.214 155.544 113.634C155.139 113.907 154.709 114.085 154.255 114.167C153.798 114.247 153.383 114.217 153.009 114.076C152.639 113.934 152.338 113.691 152.107 113.348L152.888 112.821C153.128 113.178 153.449 113.371 153.851 113.403C154.254 113.43 154.675 113.295 155.115 112.998C155.526 112.722 155.784 112.426 155.889 112.111C155.995 111.797 155.951 111.495 155.756 111.206C155.561 110.917 155.31 110.763 155.002 110.743C154.692 110.72 154.22 110.811 153.584 111.015Z" fill="#FF000F" fill-opacity="0.04"/>
<path d="M176.763 122.217V125H175.825V117.891H178.447C179.225 117.891 179.834 118.089 180.273 118.486C180.716 118.883 180.938 119.409 180.938 120.063C180.938 120.754 180.721 121.286 180.288 121.66C179.858 122.031 179.242 122.217 178.438 122.217H176.763ZM176.763 121.45H178.447C178.949 121.45 179.333 121.333 179.6 121.099C179.867 120.861 180 120.519 180 120.073C180 119.65 179.867 119.312 179.6 119.058C179.333 118.804 178.966 118.672 178.501 118.662H176.763V121.45ZM183.071 122.217V125H182.134V117.891H184.756C185.534 117.891 186.143 118.089 186.582 118.486C187.025 118.883 187.246 119.409 187.246 120.063C187.246 120.754 187.03 121.286 186.597 121.66C186.167 122.031 185.55 122.217 184.746 122.217H183.071ZM183.071 121.45H184.756C185.257 121.45 185.641 121.333 185.908 121.099C186.175 120.861 186.309 120.519 186.309 120.073C186.309 119.65 186.175 119.312 185.908 119.058C185.641 118.804 185.275 118.672 184.81 118.662H183.071V121.45ZM193.354 118.662H191.069V125H190.137V118.662H187.856V117.891H193.354V118.662ZM199.521 124.067C199.281 124.412 198.944 124.671 198.511 124.844C198.081 125.013 197.58 125.098 197.007 125.098C196.427 125.098 195.913 124.963 195.464 124.692C195.015 124.419 194.666 124.032 194.419 123.53C194.175 123.029 194.049 122.448 194.043 121.787V121.167C194.043 120.096 194.292 119.266 194.79 118.677C195.291 118.088 195.994 117.793 196.899 117.793C197.642 117.793 198.239 117.983 198.691 118.364C199.144 118.742 199.421 119.279 199.521 119.976H198.584C198.408 119.035 197.848 118.564 196.904 118.564C196.276 118.564 195.799 118.786 195.474 119.229C195.151 119.668 194.989 120.306 194.985 121.143V121.724C194.985 122.521 195.168 123.156 195.532 123.628C195.897 124.097 196.39 124.331 197.012 124.331C197.363 124.331 197.671 124.292 197.935 124.214C198.198 124.136 198.416 124.004 198.589 123.818V122.222H196.943V121.46H199.521V124.067ZM204.209 125C204.157 124.896 204.115 124.71 204.082 124.443C203.662 124.88 203.161 125.098 202.578 125.098C202.057 125.098 201.629 124.951 201.294 124.658C200.962 124.362 200.796 123.988 200.796 123.535C200.796 122.985 201.004 122.559 201.421 122.256C201.841 121.95 202.43 121.797 203.188 121.797H204.067V121.382C204.067 121.066 203.973 120.815 203.784 120.63C203.595 120.441 203.317 120.347 202.949 120.347C202.627 120.347 202.357 120.428 202.139 120.591C201.921 120.754 201.812 120.951 201.812 121.182H200.903C200.903 120.918 200.996 120.664 201.182 120.42C201.37 120.173 201.624 119.977 201.943 119.834C202.266 119.691 202.619 119.619 203.003 119.619C203.612 119.619 204.089 119.772 204.434 120.078C204.779 120.381 204.958 120.799 204.971 121.333V123.765C204.971 124.25 205.033 124.635 205.156 124.922V125H204.209ZM202.71 124.312C202.993 124.312 203.262 124.238 203.516 124.092C203.77 123.945 203.953 123.755 204.067 123.521V122.437H203.359C202.253 122.437 201.699 122.76 201.699 123.408C201.699 123.691 201.794 123.913 201.982 124.072C202.171 124.232 202.414 124.312 202.71 124.312ZM207.236 119.717L207.261 120.303C207.648 119.847 208.171 119.619 208.828 119.619C209.567 119.619 210.07 119.902 210.337 120.469C210.513 120.215 210.741 120.01 211.021 119.854C211.304 119.697 211.637 119.619 212.021 119.619C213.18 119.619 213.77 120.233 213.789 121.46V125H212.886V121.514C212.886 121.136 212.799 120.854 212.627 120.669C212.454 120.48 212.165 120.386 211.758 120.386C211.423 120.386 211.144 120.487 210.923 120.688C210.701 120.887 210.573 121.156 210.537 121.494V125H209.629V121.538C209.629 120.77 209.253 120.386 208.501 120.386C207.909 120.386 207.503 120.638 207.285 121.143V125H206.382V119.717H207.236ZM217.349 125.098C216.632 125.098 216.05 124.863 215.601 124.395C215.151 123.923 214.927 123.293 214.927 122.505V122.339C214.927 121.815 215.026 121.348 215.225 120.938C215.426 120.524 215.706 120.202 216.064 119.971C216.426 119.736 216.816 119.619 217.236 119.619C217.923 119.619 218.457 119.845 218.838 120.298C219.219 120.75 219.409 121.398 219.409 122.241V122.617H215.83C215.843 123.138 215.994 123.56 216.284 123.882C216.577 124.201 216.948 124.36 217.397 124.36C217.716 124.36 217.987 124.295 218.208 124.165C218.429 124.035 218.623 123.862 218.789 123.647L219.341 124.077C218.898 124.757 218.234 125.098 217.349 125.098ZM217.236 120.361C216.872 120.361 216.566 120.495 216.318 120.762C216.071 121.025 215.918 121.396 215.859 121.875H218.506V121.807C218.48 121.348 218.356 120.993 218.135 120.742C217.913 120.488 217.614 120.361 217.236 120.361ZM223.535 123.599C223.535 123.354 223.442 123.166 223.257 123.032C223.075 122.896 222.754 122.778 222.295 122.681C221.839 122.583 221.476 122.466 221.206 122.329C220.939 122.192 220.741 122.03 220.61 121.841C220.483 121.652 220.42 121.427 220.42 121.167C220.42 120.734 220.602 120.368 220.967 120.068C221.335 119.769 221.803 119.619 222.373 119.619C222.972 119.619 223.457 119.774 223.828 120.083C224.202 120.392 224.39 120.788 224.39 121.27H223.481C223.481 121.022 223.376 120.809 223.164 120.63C222.956 120.451 222.692 120.361 222.373 120.361C222.044 120.361 221.787 120.433 221.602 120.576C221.416 120.719 221.323 120.907 221.323 121.138C221.323 121.356 221.41 121.52 221.582 121.631C221.755 121.742 222.065 121.847 222.515 121.948C222.967 122.049 223.333 122.17 223.613 122.31C223.893 122.45 224.1 122.619 224.233 122.817C224.37 123.013 224.438 123.252 224.438 123.535C224.438 124.007 224.25 124.386 223.872 124.673C223.494 124.956 223.005 125.098 222.402 125.098C221.979 125.098 221.605 125.023 221.279 124.873C220.954 124.723 220.698 124.515 220.513 124.248C220.33 123.978 220.239 123.687 220.239 123.374H221.143C221.159 123.677 221.279 123.918 221.504 124.097C221.732 124.272 222.031 124.36 222.402 124.36C222.744 124.36 223.018 124.292 223.223 124.155C223.431 124.015 223.535 123.83 223.535 123.599Z" fill="#FF000F" fill-opacity="0.04"/>
<path d="M184.031 133.724L181.765 134.016L182.577 140.302L181.652 140.421L180.84 134.136L178.578 134.428L178.479 133.663L183.932 132.958L184.031 133.724ZM187.2 137.445L187.456 138.357L187.546 137.494L188.305 132.394L189.09 132.292L191.086 137.036L191.39 137.864L191.417 136.895L191.889 131.931L192.823 131.81L192.025 139.081L191.177 139.191L189.061 134.241L188.88 133.718L188.838 134.269L187.996 139.602L187.148 139.711L184.533 132.881L185.462 132.761L187.2 137.445ZM199.857 137.129C199.662 137.502 199.361 137.802 198.954 138.029C198.549 138.252 198.063 138.4 197.495 138.473C196.92 138.548 196.393 138.479 195.913 138.269C195.432 138.055 195.037 137.716 194.727 137.25C194.421 136.785 194.222 136.224 194.131 135.57L194.052 134.955C193.914 133.893 194.055 133.037 194.474 132.389C194.895 131.741 195.555 131.359 196.452 131.243C197.188 131.148 197.805 131.26 198.303 131.58C198.8 131.896 199.143 132.393 199.332 133.071L198.403 133.191C198.108 132.281 197.492 131.886 196.556 132.007C195.933 132.088 195.488 132.368 195.222 132.849C194.959 133.326 194.879 133.98 194.983 134.81L195.058 135.386C195.16 136.177 195.422 136.783 195.844 137.205C196.266 137.623 196.785 137.792 197.401 137.712C197.75 137.667 198.05 137.589 198.302 137.478C198.553 137.367 198.752 137.208 198.9 137.002L198.695 135.418L197.063 135.629L196.966 134.874L199.523 134.543L199.857 137.129Z" fill="#FF000F" fill-opacity="0.04"/>
<defs>
<filter id="filter0_i_1_18" x="91" y="81" width="150" height="150" filterUnits="userSpaceOnUse" color-interpolation-filters="sRGB">
<feFlood flood-opacity="0" result="BackgroundImageFix"/>
<feBlend mode="normal" in="SourceGraphic" in2="BackgroundImageFix" result="shape"/>
<feColorMatrix in="SourceAlpha" type="matrix" values="0 0 0 0 0 0 0 0 0 0 0 0 0 0 0 0 0 0 127 0" result="hardAlpha"/>
<feOffset/>
<feGaussianBlur stdDeviation="20"/>
<feComposite in2="hardAlpha" operator="arithmetic" k2="-1" k3="1"/>
<feColorMatrix type="matrix" values="0 0 0 0 0 0 0 0 0 0 0 0 0 0 0 0 0 0 0.1 0"/>
<feBlend mode="normal" in2="shape" result="effect1_innerShadow_1_18"/>
</filter>
<filter id="filter1_i_1_18" x="91.4141" y="81.4146" width="149.171" height="149.171" filterUnits="userSpaceOnUse" color-interpolation-filters="sRGB">
<feFlood flood-opacity="0" result="BackgroundImageFix"/>
<feBlend mode="normal" in="SourceGraphic" in2="BackgroundImageFix" result="shape"/>
<feColorMatrix in="SourceAlpha" type="matrix" values="0 0 0 0 0 0 0 0 0 0 0 0 0 0 0 0 0 0 127 0" result="hardAlpha"/>
<feOffset/>
<feGaussianBlur stdDeviation="20"/>
<feComposite in2="hardAlpha" operator="arithmetic" k2="-1" k3="1"/>
<feColorMatrix type="matrix" values="0 0 0 0 0 0 0 0 0 0 0 0 0 0 0 0 0 0 0.1 0"/>
<feBlend mode="normal" in2="shape" result="effect1_innerShadow_1_18"/>
</filter>
<linearGradient id="paint0_linear_1_18" x1="379.13" y1="256.81" x2="216.472" y2="1.34007" gradientUnits="userSpaceOnUse">
<stop stop-color="#100809"/>
<stop offset="1" stop-color="#3F599D"/>
</linearGradient>
<linearGradient id="paint1_linear_1_18" x1="377.952" y1="256.253" x2="216.193" y2="2.19478" gradientUnits="userSpaceOnUse">
<stop stop-color="#100809"/>
<stop offset="1" stop-color="#3F599D"/>
</linearGradient>
<linearGradient id="paint2_linear_1_18" x1="220.828" y1="208.421" x2="136.246" y2="75.5768" gradientUnits="userSpaceOnUse">
<stop stop-color="#100809"/>
<stop offset="1" stop-color="#3F599D"/>
</linearGradient>
</defs>
</svg>
