<svg width="330" height="128" viewBox="0 0 330 128" fill="none" xmlns="http://www.w3.org/2000/svg">
<path fill-rule="evenodd" clip-rule="evenodd" d="M96.5 64.0833C96.4999 81.8024 82.1357 96.1665 64.4166 96.1665C46.6976 96.1665 32.3334 81.8024 32.3333 64.0833H96.5Z" fill="#35384D"/>
<path fill-rule="evenodd" clip-rule="evenodd" d="M64.4166 32C46.6976 32 32.3334 46.3641 32.3333 64.0832H64.4166V32Z" fill="#D1D6FF"/>
<path fill-rule="evenodd" clip-rule="evenodd" d="M64.4167 32C82.1357 32 96.4999 46.3641 96.5 64.0832H64.4167V32Z" fill="#B1B9FF"/>
<rect x="26.5" y="49.5" width="29.1667" height="14.5833" fill="#35384D"/>
<rect x="26.5" y="64.0833" width="29.1667" height="14.5833" fill="#D1D6FF"/>
<path d="M112.794 86V42.3636H128.348C131.743 42.3636 134.555 42.9815 136.786 44.2173C139.016 45.4531 140.685 47.1435 141.793 49.2884C142.901 51.419 143.455 53.8196 143.455 56.4901C143.455 59.1747 142.893 61.5895 141.771 63.7344C140.663 65.8651 138.987 67.5554 136.743 68.8054C134.513 70.0412 131.707 70.6591 128.327 70.6591H117.631V65.0767H127.73C129.875 65.0767 131.615 64.7074 132.95 63.9688C134.286 63.2159 135.266 62.1932 135.891 60.9006C136.516 59.608 136.828 58.1378 136.828 56.4901C136.828 54.8423 136.516 53.3793 135.891 52.1009C135.266 50.8224 134.278 49.821 132.929 49.0966C131.594 48.3722 129.832 48.0099 127.645 48.0099H119.378V86H112.794ZM151.173 86V42.3636H166.727C170.122 42.3636 172.934 42.9815 175.164 44.2173C177.395 45.4531 179.064 47.1435 180.172 49.2884C181.279 51.419 181.833 53.8196 181.833 56.4901C181.833 59.1747 181.272 61.5895 180.15 63.7344C179.042 65.8651 177.366 67.5554 175.122 68.8054C172.892 70.0412 170.086 70.6591 166.706 70.6591H156.01V65.0767H166.109C168.254 65.0767 169.994 64.7074 171.329 63.9688C172.664 63.2159 173.645 62.1932 174.27 60.9006C174.895 59.608 175.207 58.1378 175.207 56.4901C175.207 54.8423 174.895 53.3793 174.27 52.1009C173.645 50.8224 172.657 49.821 171.308 49.0966C169.973 48.3722 168.211 48.0099 166.024 48.0099H157.757V86H151.173ZM187.4 48.0312V42.3636H221.171V48.0312H207.556V86H200.994V48.0312H187.4ZM264.664 64.1818C264.664 68.8409 263.811 72.8466 262.107 76.1989C260.402 79.5369 258.066 82.108 255.097 83.9119C252.142 85.7017 248.783 86.5966 245.019 86.5966C241.24 86.5966 237.867 85.7017 234.898 83.9119C231.944 82.108 229.614 79.5298 227.909 76.1776C226.205 72.8253 225.353 68.8267 225.353 64.1818C225.353 59.5227 226.205 55.5241 227.909 52.1861C229.614 48.8338 231.944 46.2628 234.898 44.473C237.867 42.669 241.24 41.767 245.019 41.767C248.783 41.767 252.142 42.669 255.097 44.473C258.066 46.2628 260.402 48.8338 262.107 52.1861C263.811 55.5241 264.664 59.5227 264.664 64.1818ZM258.144 64.1818C258.144 60.6307 257.569 57.6406 256.418 55.2116C255.282 52.7685 253.719 50.9219 251.73 49.6719C249.756 48.4077 247.519 47.7756 245.019 47.7756C242.505 47.7756 240.26 48.4077 238.286 49.6719C236.311 50.9219 234.749 52.7685 233.598 55.2116C232.462 57.6406 231.894 60.6307 231.894 64.1818C231.894 67.733 232.462 70.7301 233.598 73.1733C234.749 75.6023 236.311 77.4489 238.286 78.7131C240.26 79.9631 242.505 80.5881 245.019 80.5881C247.519 80.5881 249.756 79.9631 251.73 78.7131C253.719 77.4489 255.282 75.6023 256.418 73.1733C257.569 70.7301 258.144 67.733 258.144 64.1818ZM296.672 53.8267C296.445 51.8097 295.507 50.2472 293.859 49.1392C292.212 48.017 290.138 47.456 287.638 47.456C285.848 47.456 284.3 47.7401 282.993 48.3082C281.686 48.8622 280.67 49.6293 279.946 50.6094C279.236 51.5753 278.881 52.6761 278.881 53.9119C278.881 54.9489 279.122 55.8437 279.605 56.5966C280.102 57.3494 280.749 57.9815 281.544 58.4929C282.354 58.9901 283.22 59.4091 284.143 59.75C285.067 60.0767 285.955 60.3466 286.807 60.5597L291.068 61.6676C292.46 62.0085 293.888 62.4702 295.351 63.0526C296.814 63.6349 298.17 64.402 299.42 65.3537C300.67 66.3054 301.679 67.4844 302.446 68.8906C303.227 70.2969 303.618 71.9801 303.618 73.9403C303.618 76.4119 302.979 78.6065 301.7 80.5241C300.436 82.4418 298.597 83.9545 296.182 85.0625C293.781 86.1705 290.876 86.7244 287.467 86.7244C284.2 86.7244 281.374 86.206 278.987 85.169C276.601 84.1321 274.733 82.6619 273.384 80.7585C272.034 78.8409 271.288 76.5682 271.146 73.9403H277.751C277.879 75.517 278.391 76.831 279.286 77.8821C280.195 78.919 281.352 79.6932 282.759 80.2045C284.179 80.7017 285.734 80.9503 287.425 80.9503C289.286 80.9503 290.94 80.6591 292.389 80.0767C293.852 79.4801 295.003 78.6562 295.841 77.6051C296.679 76.5398 297.098 75.2969 297.098 73.8764C297.098 72.5838 296.729 71.5256 295.99 70.7017C295.266 69.8778 294.278 69.196 293.028 68.6562C291.793 68.1165 290.393 67.6406 288.831 67.2287L283.675 65.8224C280.18 64.8707 277.411 63.4716 275.365 61.625C273.334 59.7784 272.318 57.3352 272.318 54.2955C272.318 51.7812 273 49.5866 274.364 47.7116C275.727 45.8366 277.574 44.3807 279.903 43.3438C282.233 42.2926 284.861 41.767 287.787 41.767C290.741 41.767 293.348 42.2855 295.607 43.3224C297.879 44.3594 299.669 45.7869 300.976 47.6051C302.283 49.4091 302.964 51.483 303.021 53.8267H296.672Z" fill="#35384D"/>
</svg>
